<svg class="svg-icon" style="width: 1em; height: 1em;vertical-align: middle;fill: currentColor;overflow: hidden;" viewBox="0 0 1024 1024" version="1.1" xmlns="http://www.w3.org/2000/svg"><path d="M859.562667 176.448 253.333333 176.448c-5.589333 0-10.88 1.152-15.786667 3.029333l-18.773333-83.093333L218.666667 96.405333 218.666667 96.128C218.069333 96.106667 217.493333 96 216.896 96L85.333333 96c-17.664 0-32 9.557333-32 21.333333s14.336 21.333333 32 21.333333l99.242667 0 108.672 480.874667c-35.818667 12.586667-61.248 43.221333-61.248 79.125333 0 27.989333 15.637333 52.650667 39.402667 68.224-20.565333 15.594667-34.069333 40.042667-34.069333 67.776 0 47.061333 38.272 85.333333 85.333333 85.333333s85.333333-38.272 85.333333-85.333333c0-19.029333-6.485333-36.458667-17.066667-50.666667l324.778667 0c-10.581333 14.208-17.045333 31.637333-17.045333 50.666667 0 47.061333 38.272 85.333333 85.333333 85.333333s85.333333-38.272 85.333333-85.333333c0-23.722667-9.749333-45.162667-25.408-60.650667 2.176-3.328 3.754667-7.082667 3.754667-11.349333 0-11.669333-9.386667-21.077333-20.992-21.269333L826.688 741.333333 329.152 741.333333c-30.037333 0-54.485333-19.136-54.485333-42.666667s24.448-42.666667 54.485333-42.666667l469.056 0 0-3.989333c6.933333-27.84 55.317333-222.485333 55.445333-223.68 1.322667-11.989333-9.856-21.333333-21.994667-21.333333-12.138667 0-19.669333 8.341333-21.994667 21.333333-0.170667 0.981333-30.954667 125.077333-45.802667 185.002667L335.573333 613.333333l-58.56-259.114667 561.194667 0c23.530667 0 42.837333-18.368 44.330667-41.514667l20.864-86.826667 0.576-4.970667C904 196.394667 884.053333 176.448 859.562667 176.448zM784 792c23.530667 0 42.666667 19.136 42.666667 42.666667s-19.136 42.666667-42.666667 42.666667-42.666667-19.136-42.666667-42.666667S760.469333 792 784 792zM322.666667 792c23.530667 0 42.666667 19.136 42.666667 42.666667s-19.136 42.666667-42.666667 42.666667-42.666667-19.136-42.666667-42.666667S299.136 792 322.666667 792zM840.576 304.810667l-0.576 4.970667c0 0.981333-0.789333 1.770667-1.770667 1.770667L269.205333 311.552l-17.429333-91.52c0.298667-0.533333 0.896-0.917333 1.557333-0.917333l606.229333 0c0.576 0 1.109333 0.277333 1.408 0.704L840.576 304.810667z" fill="white" /></svg>